<svg width="127" height="104" viewBox="0 0 127 104" fill="none" xmlns="http://www.w3.org/2000/svg">
<path d="M2 2H16.0656C18.3103 2 20.2909 3.45574 20.9437 5.58542L42.9631 77.4146C43.6159 79.5442 45.5965 81 47.841 81H97.4531C99.7858 81 101.822 79.4298 102.395 77.1875L111.278 42.4686C111.852 40.2261 113.888 38.656 116.22 38.656H125" stroke="white" stroke-width="4" stroke-linecap="round"/>
<path d="M74.3443 22.5509C73.6019 21.8164 72.3982 21.8164 71.6557 22.5509L59.5567 34.5239C58.8144 35.2586 58.8144 36.4498 59.5567 37.1845C60.2992 37.9192 61.503 37.9192 62.2455 37.1845L72.9999 26.542L83.7546 37.1845C84.497 37.9192 85.7007 37.9192 86.4432 37.1845C87.1856 36.4498 87.1856 35.2586 86.4432 34.5239L74.3443 22.5509ZM74.9012 59V23.8813H71.0989V59H74.9012Z" fill="white"/>
<path d="M59.5 102C62.5376 102 65 99.5376 65 96.5C65 93.4624 62.5376 91 59.5 91C56.4624 91 54 93.4624 54 96.5C54 99.5376 56.4624 102 59.5 102Z" stroke="white" stroke-width="3"/>
<path d="M87.5 102C90.5376 102 93 99.5376 93 96.5C93 93.4624 90.5376 91 87.5 91C84.4624 91 82 93.4624 82 96.5C82 99.5376 84.4624 102 87.5 102Z" stroke="white" stroke-width="3"/>
</svg>
