<svg width="32" height="32" viewBox="0 0 32 32" fill="none" xmlns="http://www.w3.org/2000/svg">
<circle cx="16" cy="16" r="16" fill="white"/>
<path d="M23 7H9C7.89 7 7 7.89 7 9V23C7 23.5304 7.21071 24.0391 7.58579 24.4142C7.96086 24.7893 8.46957 25 9 25H23C24.11 25 25 24.11 25 23V9C25 8.46957 24.7893 7.96086 24.4142 7.58579C24.0391 7.21071 23.5304 7 23 7ZM12.83 11.05C13.81 11.05 14.6 11.84 14.6 12.83C14.6 13.81 13.81 14.6 12.83 14.6C11.84 14.6 11.05 13.81 11.05 12.83C11.05 11.84 11.84 11.05 12.83 11.05ZM19.22 21C18.24 21 17.45 20.2 17.45 19.22C17.45 18.24 18.24 17.45 19.22 17.45C20.2 17.45 21 18.24 21 19.22C21 20.2 20.2 21 19.22 21ZM12.5 21.03L11 19.53L19.53 11L21.03 12.5L12.5 21.03Z" fill="#2752E7"/>
</svg>
