<svg width="12" height="10" viewBox="0 0 12 10" fill="none" xmlns="http://www.w3.org/2000/svg">
<path d="M0.50009 4.49995C0.367481 4.49995 0.240304 4.55263 0.146536 4.6464C0.0527678 4.74017 8.96454e-05 4.86734 8.96454e-05 4.99995C8.96454e-05 5.13256 0.0527678 5.25974 0.146536 5.35351C0.240304 5.44727 0.367481 5.49995 0.50009 5.49995L10.1971 5.49995L6.16609 9.12795C6.06979 9.21715 6.01242 9.34065 6.00638 9.47177C6.00034 9.6029 6.04611 9.73114 6.13381 9.82882C6.22151 9.92649 6.3441 9.98576 6.47511 9.99383C6.60613 10.0019 6.73507 9.95813 6.83409 9.87195L11.8341 5.37195C11.8863 5.32506 11.9281 5.2677 11.9566 5.20361C11.9852 5.13952 12 5.07013 12 4.99995C12 4.92978 11.9852 4.86038 11.9566 4.79629C11.9281 4.7322 11.8863 4.67484 11.8341 4.62795L6.83409 0.127953C6.73507 0.04178 6.60613 -0.00199667 6.47511 0.00607359C6.3441 0.0141439 6.22151 0.0734138 6.13381 0.171088C6.04611 0.268762 6.00034 0.397005 6.00638 0.528133C6.01242 0.65926 6.06979 0.782754 6.16609 0.871953L10.1971 4.49995L0.50009 4.49995Z" fill="black"/>
</svg>
