<svg width="12" height="12" viewBox="0 0 12 12" fill="none" xmlns="http://www.w3.org/2000/svg">
<path d="M6 11.1553C5.27744 11.1553 4.59689 11.0172 3.95833 10.7411C3.31978 10.465 2.76367 10.0897 2.29 9.61527C1.81556 9.142 1.44028 8.58588 1.16417 7.94694C0.888056 7.30838 0.75 6.62783 0.75 5.90527C0.75 5.18077 0.888056 4.49963 1.16417 3.86186C1.44067 3.22408 1.81594 2.66836 2.29 2.19469C2.76328 1.72102 3.31939 1.34613 3.95833 1.07002C4.59689 0.793523 5.27744 0.655273 6 0.655273C6.7245 0.655273 7.40564 0.793329 8.04342 1.06944C8.68119 1.34594 9.23692 1.72122 9.71058 2.19527C10.1842 2.66894 10.5591 3.22447 10.8352 3.86186C11.1117 4.49963 11.25 5.18077 11.25 5.90527C11.25 6.62783 11.1119 7.30838 10.8358 7.94694C10.5597 8.5855 10.1844 9.14161 9.71 9.61527C9.23633 10.0893 8.68081 10.4646 8.04342 10.7411C7.40564 11.0172 6.7245 11.1553 6 11.1553ZM6 10.5766C6.34222 10.1368 6.62456 9.70491 6.847 9.28102C7.06906 8.85713 7.24969 8.38269 7.38892 7.85769H4.61108C4.76508 8.41225 4.94942 8.90147 5.16408 9.32536C5.37875 9.74925 5.65739 10.1663 6 10.5766ZM5.25742 10.4891C4.98519 10.1683 4.73669 9.77161 4.51192 9.29911C4.28714 8.827 4.11992 8.34633 4.01025 7.85711H1.77258C2.10703 8.58277 2.58089 9.17777 3.19417 9.64211C3.80783 10.1064 4.49539 10.3888 5.25683 10.4891M6.742 10.4891C7.50344 10.3888 8.191 10.1064 8.80467 9.64211C9.41833 9.17777 9.89219 8.58277 10.2262 7.85711H7.98975C7.84197 8.35372 7.65589 8.83827 7.4315 9.31077C7.20672 9.78288 6.97689 10.1757 6.742 10.4891ZM1.53458 7.27377H3.88833C3.844 7.03461 3.81289 6.80147 3.795 6.57436C3.77633 6.34725 3.767 6.12422 3.767 5.90527C3.767 5.68633 3.77614 5.4633 3.79442 5.23619C3.81269 5.00908 3.84381 4.77575 3.88775 4.53619H1.53575C1.47236 4.73841 1.42278 4.95872 1.387 5.19711C1.35122 5.4355 1.33333 5.67155 1.33333 5.90527C1.33333 6.13938 1.35103 6.37544 1.38642 6.61344C1.42219 6.85183 1.47178 7.07194 1.53517 7.27377M4.47225 7.27377H7.52775C7.57208 7.03461 7.60319 6.80516 7.62108 6.58544C7.63975 6.36611 7.64908 6.13938 7.64908 5.90527C7.64908 5.67116 7.63994 5.44444 7.62167 5.22511C7.60339 5.00538 7.57228 4.77594 7.52833 4.53677H4.47167C4.42772 4.77594 4.39661 5.00538 4.37833 5.22511C4.36006 5.44444 4.35092 5.67116 4.35092 5.90527C4.35092 6.13938 4.36006 6.36611 4.37833 6.58544C4.39661 6.80516 4.42831 7.03461 4.47225 7.27377ZM8.11167 7.27377H10.4648C10.5282 7.07155 10.5778 6.85144 10.6136 6.61344C10.6494 6.37544 10.6671 6.13938 10.6667 5.90527C10.6667 5.67116 10.649 5.43511 10.6136 5.19711C10.5778 4.95872 10.5282 4.73861 10.4648 4.53677H8.11108C8.15542 4.77594 8.18653 5.00908 8.20442 5.23619C8.22308 5.4633 8.23242 5.68633 8.23242 5.90527C8.23242 6.12422 8.22328 6.34725 8.205 6.57436C8.18672 6.80147 8.15561 7.0348 8.11167 7.27436M7.99033 3.95344H10.2268C9.885 3.213 9.41678 2.618 8.82217 2.16844C8.22717 1.71888 7.53397 1.43305 6.74258 1.31094C7.01481 1.66872 7.25961 2.07822 7.477 2.53944C7.694 3.00027 7.86511 3.47161 7.99033 3.95344ZM4.61108 3.95344H7.38892C7.23492 3.40588 7.04494 2.91083 6.819 2.46827C6.59344 2.02533 6.32044 1.61388 6 1.23394C5.67994 1.61388 5.40694 2.02533 5.181 2.46827C4.95544 2.91083 4.76547 3.40588 4.61108 3.95344ZM1.77317 3.95344H4.00967C4.13489 3.47161 4.306 3.00027 4.523 2.53944C4.74039 2.07822 4.98519 1.66852 5.25742 1.31036C4.45864 1.43286 3.76369 1.72063 3.17258 2.17369C2.58147 2.62713 2.11481 3.22019 1.77258 3.95286" fill="black"/>
</svg>
